<?xml version="1.0" encoding="UTF-8"?>
<svg id="_レイヤー_2" data-name="レイヤー 2" xmlns="http://www.w3.org/2000/svg" viewBox="0 0 24.34 24.34">
  <defs>
    <style>
      .cls-1 {
        fill: none;
        stroke: #9f998f;
        stroke-linecap: round;
        stroke-miterlimit: 10;
        stroke-width: 1.5px;
      }
    </style>
  </defs>
  <g id="_レイヤー_2-2" data-name="レイヤー 2">
    <path class="cls-1" d="M23.59,11.34l-2.62-2.62c-.09-.09-.14-.21-.14-.33v-3.7l-1.18-1.18h-3.7c-.12,0-.24-.05-.33-.14l-2.62-2.62h-1.66l-2.62,2.62c-.09.09-.21.14-.33.14h-3.7l-1.18,1.18v3.7c0,.12-.05.24-.14.33l-2.62,2.62v1.66l2.62,2.62c.09.09.14.21.14.33v3.7l1.18,1.18h3.7c.12,0,.24.05.33.14l2.62,2.62h1.66l2.62-2.62c.09-.09.21-.14.33-.14h3.7l1.18-1.18v-3.7c0-.12.05-.24.14-.33l2.62-2.62v-1.66Z"/>
    <circle class="cls-1" cx="12.17" cy="12.17" r="4.93"/>
  </g>
</svg>