<?xml version="1.0" encoding="UTF-8"?>
<svg id="_レイヤー_2" data-name="レイヤー 2" xmlns="http://www.w3.org/2000/svg" viewBox="0 0 23.12 23.24">
  <defs>
    <style>
      .cls-1 {
        stroke-miterlimit: 10;
      }

      .cls-1, .cls-2 {
        fill: none;
        stroke: #fff;
        stroke-linecap: round;
        stroke-width: 1.5px;
      }

      .cls-2 {
        stroke-linejoin: round;
      }
    </style>
  </defs>
  <g id="_レイヤー_2-2" data-name="レイヤー 2">
    <rect class="cls-1" x=".75" y=".75" width="21.62" height="21.74" rx="1.28" ry="1.28"/>
    <g>
      <g>
        <path class="cls-2" d="M12.74,16.15l-1.49,1.49c-.37.37-.79.64-1.25.83s-.94.28-1.42.28-.96-.09-1.42-.28-.88-.46-1.25-.83h0c-.37-.37-.64-.79-.83-1.25s-.28-.94-.28-1.42.09-.96.28-1.42.46-.88.83-1.25l1.49-1.49"/>
        <path class="cls-2" d="M10.38,7.85l1.49-1.49c.37-.37.79-.64,1.25-.83s.94-.28,1.42-.28.96.09,1.42.28.88.46,1.25.83h0c.37.37.64.79.83,1.25s.28.94.28,1.42-.09.96-.28,1.42-.46.88-.83,1.25l-1.49,1.49"/>
      </g>
      <line class="cls-2" x1="9.15" y1="14.41" x2="13.97" y2="9.59"/>
    </g>
  </g>
</svg>