<?xml version="1.0" encoding="UTF-8"?>
<svg id="_レイヤー_2" data-name="レイヤー 2" xmlns="http://www.w3.org/2000/svg" viewBox="0 0 20.71 24.04">
  <defs>
    <style>
      .cls-1 {
        fill: none;
        stroke: #ffc300;
        stroke-linecap: round;
        stroke-miterlimit: 10;
        stroke-width: 1.5px;
      }
    </style>
  </defs>
  <g id="_レイヤー_2-2" data-name="レイヤー 2">
    <g>
      <path class="cls-1" d="M10.35,3.55h0c-1.13,0-2.2.23-3.18.64s-1.86,1.01-2.6,1.75-1.34,1.62-1.75,2.6-.64,2.05-.64,3.18v4.08l-1.4,3.33c-.15.36.11.75.5.75h18.12c.39,0,.65-.4.5-.75l-1.4-3.33v-4.08c0-1.13-.23-2.2-.64-3.18s-1.01-1.86-1.75-2.6-1.62-1.34-2.6-1.75-2.05-.64-3.18-.64Z"/>
      <path class="cls-1" d="M12.79,3.19c0-1.35-1.09-2.44-2.44-2.44s-2.44,1.09-2.44,2.44"/>
      <path class="cls-1" d="M6.94,19.88c0,1.88,1.53,3.41,3.41,3.41s3.41-1.53,3.41-3.41"/>
    </g>
  </g>
</svg>