<?xml version="1.0" encoding="UTF-8"?>
<svg id="_レイヤー_2" data-name="レイヤー 2" xmlns="http://www.w3.org/2000/svg" viewBox="0 0 24 24">
  <defs>
    <style>
      .cls-1 {
        fill: none;
        stroke: #a7aaac;
        stroke-linecap: round;
        stroke-linejoin: round;
        stroke-width: 1.5px;
      }

      .cls-2 {
        fill: #a7aaac;
      }
    </style>
  </defs>
  <g id="_レイヤー_2-2" data-name="レイヤー 2">
    <circle class="cls-1" cx="12" cy="12" r="11.25"/>
    <path class="cls-2" d="M10.58,14.89v-.15c0-.87.08-1.55.25-2.04.17-.48.4-.87.71-1.15.31-.28.68-.56,1.11-.82.44-.27.8-.59,1.1-.97s.44-.84.44-1.37c0-.42-.1-.78-.29-1.08-.19-.3-.45-.54-.78-.71-.33-.17-.7-.25-1.1-.25-.37,0-.71.08-1.04.23-.33.15-.6.38-.82.7-.21.32-.34.72-.37,1.22h-2.18c.03-.87.24-1.6.64-2.18.4-.59.93-1.03,1.59-1.34.66-.3,1.39-.46,2.18-.46.88,0,1.65.16,2.3.48.65.32,1.16.78,1.53,1.36.37.58.55,1.26.55,2.03s-.18,1.48-.54,2.05c-.36.56-.87,1.03-1.51,1.42-.4.25-.73.49-.99.72-.25.23-.44.51-.55.84-.11.33-.17.76-.17,1.31v.15h-2.06ZM11.62,19.46c-.41,0-.76-.14-1.04-.41-.28-.27-.42-.61-.42-1.02s.14-.74.42-1.02.63-.41,1.04-.41.76.14,1.04.41.42.61.42,1.02-.14.74-.42,1.02c-.28.27-.62.41-1.04.41Z"/>
  </g>
</svg>