<?xml version="1.0" encoding="UTF-8"?>
<svg id="_レイヤー_2" data-name="レイヤー 2" xmlns="http://www.w3.org/2000/svg" viewBox="0 0 304.81 604.53">
  <defs>
    <style>
      .cls-1 {
        fill: #22215e;
      }

      .cls-2 {
        fill: #a88a00;
      }
    </style>
  </defs>
  <g id="_レイヤー_3" data-name="レイヤー 3">
    <polygon class="cls-2" points="105.39 180.46 61.46 127.54 95.52 151.89 67.81 67.74 107.6 117.92 107.6 30.69 137.14 94.73 165.19 0 165.19 116.72 214.41 49.22 205.98 127.01 268.39 90.23 186.89 184.17 105.39 180.46"/>
    <path class="cls-1" d="M0,139.54h304.81v231.11c0,84.12-68.29,152.41-152.41,152.41h0C68.29,523.06,0,454.77,0,370.66v-231.11H0Z"/>
    <path class="cls-1" d="M70.48,604.53h163.84c15.4,0,22.83-18.87,11.56-29.37l-81.92-76.34c-6.51-6.07-16.61-6.07-23.12,0l-81.92,76.34c-11.27,10.5-3.84,29.37,11.56,29.37Z"/>
  </g>
</svg>