<?xml version="1.0" encoding="UTF-8"?>
<svg id="_レイヤー_2" data-name="レイヤー 2" xmlns="http://www.w3.org/2000/svg" viewBox="0 0 866.99 1007.62">
  <defs>
    <style>
      .cls-1 {
        fill: #22215e;
      }

      .cls-2 {
        fill: #a88a00;
      }

      .cls-3 {
        fill: #e98a00;
      }
    </style>
  </defs>
  <g id="_レイヤー_3" data-name="レイヤー 3">
    <polygon class="cls-2" points="334.73 571.67 224.42 438.76 309.96 499.9 240.36 288.57 340.3 414.58 340.3 195.53 414.48 356.35 484.92 118.44 484.92 411.59 608.53 242.05 587.36 437.43 744.1 345.05 539.42 580.97 334.73 571.67"/>
    <path class="cls-1" d="M294.22,542.63h304.81v231.11c0,84.12-68.29,152.41-152.41,152.41h0c-84.12,0-152.41-68.29-152.41-152.41v-231.11h0Z"/>
    <path class="cls-1" d="M364.71,1007.62h163.84c15.4,0,22.83-18.87,11.56-29.37l-81.92-76.34c-6.51-6.07-16.61-6.07-23.12,0l-81.92,76.34c-11.27,10.5-3.84,29.37,11.56,29.37Z"/>
    <g>
      <path class="cls-3" d="M484.26,309.14h0c0-74.87-60.7-135.57-135.57-135.57h0c74.87,0,135.57-60.7,135.57-135.57h0c0,74.87,60.7,135.57,135.57,135.57h0c-74.87,0-135.57,60.7-135.57,135.57Z"/>
      <path class="cls-3" d="M388.4,269.43h0c52.94-52.94,52.94-138.78,0-191.73h0c52.94,52.94,138.78,52.94,191.73,0h0c-52.94,52.94-52.94,138.78,0,191.73h0c-52.94-52.94-138.78-52.94-191.73,0Z"/>
    </g>
    <g>
      <path class="cls-3" d="M684.54,509.42h0c0-74.87-60.7-135.57-135.57-135.57h0c74.87,0,135.57-60.7,135.57-135.57h0c0,74.87,60.7,135.57,135.57,135.57h0c-74.87,0-135.57,60.7-135.57,135.57Z"/>
      <path class="cls-3" d="M588.67,469.71h0c52.94-52.94,52.94-138.78,0-191.73h0c52.94,52.94,138.78,52.94,191.73,0h0c-52.94,52.94-52.94,138.78,0,191.73h0c-52.94-52.94-138.78-52.94-191.73,0Z"/>
    </g>
    <g>
      <path class="cls-3" d="M684.36,326.61h0c0-57.57-46.67-104.24-104.24-104.24h0c57.57,0,104.24-46.67,104.24-104.24h0c0,57.57,46.67,104.24,104.24,104.24h0c-57.57,0-104.24,46.67-104.24,104.24Z"/>
      <path class="cls-3" d="M610.65,296.08h0c40.71-40.71,40.71-106.71,0-147.41h0c40.71,40.71,106.71,40.71,147.41,0h0c-40.71,40.71-40.71,106.71,0,147.41h0c-40.71-40.71-106.71-40.71-147.41,0Z"/>
    </g>
    <g>
      <path class="cls-3" d="M294.22,767.14h0c0-57.57-46.67-104.24-104.24-104.24h0c57.57,0,104.24-46.67,104.24-104.24h0c0,57.57,46.67,104.24,104.24,104.24h0c-57.57,0-104.24,46.67-104.24,104.24Z"/>
      <path class="cls-3" d="M220.52,736.61h0c40.71-40.71,40.71-106.71,0-147.41h0c40.71,40.71,106.71,40.71,147.41,0h0c-40.71,40.71-40.71,106.71,0,147.41h0c-40.71-40.71-106.71-40.71-147.41,0Z"/>
    </g>
    <g>
      <path class="cls-3" d="M320.28,309.14h0c0-74.87-60.7-135.57-135.57-135.57h0c74.87,0,135.57-60.7,135.57-135.57h0c0,74.87,60.7,135.57,135.57,135.57h0c-74.87,0-135.57,60.7-135.57,135.57Z"/>
      <path class="cls-3" d="M224.42,269.43h0c52.94-52.94,52.94-138.78,0-191.73h0c52.94,52.94,138.78,52.94,191.73,0h0c-52.94,52.94-52.94,138.78,0,191.73h0c-52.94-52.94-138.78-52.94-191.73,0Z"/>
    </g>
    <g>
      <path class="cls-3" d="M98.62,251.96h0c0-43.29-35.1-78.39-78.39-78.39h0c43.29,0,78.39-35.1,78.39-78.39h0c0,43.29,35.1,78.39,78.39,78.39h0c-43.29,0-78.39,35.1-78.39,78.39Z"/>
      <path class="cls-3" d="M43.19,229h0c30.61-30.61,30.61-80.25,0-110.86h0c30.61,30.61,80.25,30.61,110.86,0h0c-30.61,30.61-30.61,80.25,0,110.86h0c-30.61-30.61-80.25-30.61-110.86,0Z"/>
    </g>
    <g>
      <path class="cls-3" d="M644.14,156.78h0c0-43.29-35.1-78.39-78.39-78.39h0c43.29,0,78.39-35.1,78.39-78.39h0c0,43.29,35.1,78.39,78.39,78.39h0c-43.29,0-78.39,35.1-78.39,78.39Z"/>
      <path class="cls-3" d="M588.71,133.82h0c30.61-30.61,30.61-80.25,0-110.86h0c30.61,30.61,80.25,30.61,110.86,0h0c-30.61,30.61-30.61,80.25,0,110.86h0c-30.61-30.61-80.25-30.61-110.86,0Z"/>
    </g>
    <g>
      <path class="cls-3" d="M788.6,587.81h0c0-43.29-35.1-78.39-78.39-78.39h0c43.29,0,78.39-35.1,78.39-78.39h0c0,43.29,35.1,78.39,78.39,78.39h0c-43.29,0-78.39,35.1-78.39,78.39Z"/>
      <path class="cls-3" d="M733.17,564.85h0c30.61-30.61,30.61-80.25,0-110.86h0c30.61,30.61,80.25,30.61,110.86,0h0c-30.61,30.61-30.61,80.25,0,110.86h0c-30.61-30.61-80.25-30.61-110.86,0Z"/>
    </g>
    <g>
      <path class="cls-3" d="M87.04,680.54h0c0-43.29-35.1-78.39-78.39-78.39h0c43.29,0,78.39-35.1,78.39-78.39h0c0,43.29,35.1,78.39,78.39,78.39h0c-43.29,0-78.39,35.1-78.39,78.39Z"/>
      <path class="cls-3" d="M31.61,657.58h0c30.61-30.61,30.61-80.25,0-110.86h0c30.61,30.61,80.25,30.61,110.86,0h0c-30.61,30.61-30.61,80.25,0,110.86h0c-30.61-30.61-80.25-30.61-110.86,0Z"/>
    </g>
    <g>
      <path class="cls-3" d="M88.84,460.9h0c0-49.07-39.78-88.84-88.84-88.84h0c49.07,0,88.84-39.78,88.84-88.84h0c0,49.07,39.78,88.84,88.84,88.84h0c-49.07,0-88.84,39.78-88.84,88.84Z"/>
      <path class="cls-3" d="M26.02,434.87h0c34.7-34.7,34.7-90.95,0-125.64h0c34.7,34.7,90.95,34.7,125.64,0h0c-34.7,34.7-34.7,90.95,0,125.64h0c-34.7-34.7-90.95-34.7-125.64,0Z"/>
    </g>
    <g>
      <path class="cls-3" d="M634.41,744.19h0c0-44.89-36.39-81.29-81.29-81.29h0c44.89,0,81.29-36.39,81.29-81.29h0c0,44.89,36.39,81.29,81.29,81.29h0c-44.89,0-81.29,36.39-81.29,81.29Z"/>
      <path class="cls-3" d="M576.93,720.38h0c31.74-31.74,31.74-83.21,0-114.96h0c31.74,31.74,83.21,31.74,114.96,0h0c-31.74,31.74-31.74,83.21,0,114.96h0c-31.74-31.74-83.21-31.74-114.96,0Z"/>
    </g>
    <g>
      <path class="cls-3" d="M633.49,606.2h0c0-53.45-43.33-96.78-96.78-96.78h0c53.45,0,96.78-43.33,96.78-96.78h0c0,53.45,43.33,96.78,96.78,96.78h0c-53.45,0-96.78,43.33-96.78,96.78Z"/>
      <path class="cls-3" d="M565.06,577.85h0c37.79-37.79,37.79-99.07,0-136.87h0c37.79,37.79,99.07,37.79,136.87,0h0c-37.79,37.79-37.79,99.07,0,136.87h0c-37.79-37.79-99.07-37.79-136.87,0Z"/>
    </g>
    <g>
      <path class="cls-3" d="M224.42,620.85h0c0-74.87-60.7-135.57-135.57-135.57h0c74.87,0,135.57-60.7,135.57-135.57h0c0,74.87,60.7,135.57,135.57,135.57h0c-74.87,0-135.57,60.7-135.57,135.57Z"/>
      <path class="cls-3" d="M128.55,581.14h0c52.94-52.94,52.94-138.78,0-191.73h0c52.94,52.94,138.78,52.94,191.73,0h0c-52.94,52.94-52.94,138.78,0,191.73h0c-52.94-52.94-138.78-52.94-191.73,0Z"/>
    </g>
    <g>
      <path class="cls-3" d="M234.19,444.71h0c0-74.87-60.7-135.57-135.57-135.57h0c74.87,0,135.57-60.7,135.57-135.57h0c0,74.87,60.7,135.57,135.57,135.57h0c-74.87,0-135.57,60.7-135.57,135.57Z"/>
      <path class="cls-3" d="M138.32,405h0c52.94-52.94,52.94-138.78,0-191.73h0c52.94,52.94,138.78,52.94,191.73,0h0c-52.94,52.94-52.94,138.78,0,191.73h0c-52.94-52.94-138.78-52.94-191.73,0Z"/>
    </g>
  </g>
</svg>