<?xml version="1.0" encoding="UTF-8"?>
<svg id="_レイヤー_2" data-name="レイヤー 2" xmlns="http://www.w3.org/2000/svg" viewBox="0 0 702.46 972.54">
  <defs>
    <style>
      .cls-1 {
        fill: #22215e;
      }

      .cls-2 {
        fill: #a88a00;
      }

      .cls-3 {
        fill: #e98a00;
      }
    </style>
  </defs>
  <g id="_レイヤー_3" data-name="レイヤー 3">
    <polygon class="cls-2" points="230.74 536.59 120.42 403.67 205.96 464.81 136.37 253.48 236.3 379.5 236.3 160.44 310.48 321.27 380.93 83.36 380.93 376.5 504.54 206.96 483.37 402.35 640.11 309.97 435.42 545.89 230.74 536.59"/>
    <path class="cls-1" d="M190.23,507.55h304.81v231.11c0,84.12-68.29,152.41-152.41,152.41h0c-84.12,0-152.41-68.29-152.41-152.41v-231.11h0Z"/>
    <path class="cls-1" d="M260.71,972.54h163.84c15.4,0,22.83-18.87,11.56-29.37l-81.92-76.34c-6.51-6.07-16.61-6.07-23.12,0l-81.92,76.34c-11.27,10.5-3.84,29.37,11.56,29.37Z"/>
    <polygon class="cls-3" points="395.16 0 438.3 105.52 508.12 195.65 395.16 180.25 282.2 195.65 352.01 105.52 395.16 0"/>
    <polygon class="cls-3" points="154.04 119.65 236.02 166.98 327.68 190.64 245.7 237.97 179.38 305.52 179.38 210.86 154.04 119.65"/>
    <polygon class="cls-3" points="702.46 263.73 665.84 351.02 653.91 444.93 596.63 369.57 521.26 312.28 615.17 300.36 702.46 263.73"/>
    <polygon class="cls-3" points="0 364.01 91.65 387.68 186.3 385.95 119.98 453.49 74.15 536.32 48.82 445.11 0 364.01"/>
  </g>
</svg>