<?xml version="1.0" encoding="UTF-8"?>
<svg id="_レイヤー_2" data-name="レイヤー 2" xmlns="http://www.w3.org/2000/svg" xmlns:xlink="http://www.w3.org/1999/xlink" viewBox="0 0 750.08 1003.05">
  <defs>
    <style>
      .cls-1, .cls-2, .cls-3 {
        fill: none;
      }

      .cls-4 {
        fill: #e99b97;
      }

      .cls-2 {
        stroke: #d9e695;
        stroke-width: 79px;
      }

      .cls-2, .cls-3 {
        stroke-miterlimit: 10;
      }

      .cls-5 {
        fill: #d9e695;
      }

      .cls-3 {
        stroke: #d96195;
        stroke-width: 18px;
      }

      .cls-6 {
        clip-path: url(#clippath);
      }
    </style>
    <clipPath id="clippath">
      <path class="cls-1" d="M255.09,243.37c-40.72-44.24.15-100.25,91.29-125.1,91.14-24.86,198.03-9.15,238.74,35.09,40.72,44.24-.15,100.25-91.29,125.1-91.14,24.86-198.03,9.15-238.74-35.09Z"/>
    </clipPath>
  </defs>
  <g id="_レイヤー_3" data-name="レイヤー 3">
    <path class="cls-2" d="M359.44,757.32s274.45-73.22,173.83-173.83c-100.62-100.62-458.37-80.09-244.91-167.11,213.46-87.03,243.87-113.78,158.8-161.54"/>
    <polygon class="cls-4" points="577.56 1003.05 172.52 1003.05 0 721.77 750.08 721.77 577.56 1003.05"/>
    <path class="cls-5" d="M255.09,243.37c-40.72-44.24.15-100.25,91.29-125.1,91.14-24.86,198.03-9.15,238.74,35.09,40.72,44.24-.15,100.25-91.29,125.1-91.14,24.86-198.03,9.15-238.74-35.09Z"/>
    <g class="cls-6">
      <polyline class="cls-3" points="526.73 326.35 517.12 300.07 491.04 310.25 481.43 283.96 455.36 294.14 445.75 267.85 419.68 278.03 410.06 251.74 383.99 261.92 374.38 235.63 348.31 245.8 338.69 219.52 312.62 229.69 303.01 203.41 276.94 213.59 267.33 187.3 241.25 197.47 231.64 171.19 205.57 181.36 195.95 155.08 169.88 165.25 160.26 138.97 134.18 149.14 124.56 122.85 98.48 133.02"/>
      <polyline class="cls-3" points="558.87 298.57 549.26 272.29 523.19 282.46 513.57 256.18 487.5 266.35 477.89 240.07 451.82 250.24 442.21 223.96 416.13 234.13 406.52 207.85 380.45 218.02 370.83 191.74 344.76 201.91 335.15 175.63 309.08 185.8 299.47 159.52 273.39 169.69 263.78 143.41 237.71 153.58 228.09 127.3 202.02 137.47 192.4 111.18 166.32 121.35 156.7 95.07 130.62 105.24"/>
      <polyline class="cls-3" points="591.01 270.79 581.4 244.51 555.33 254.68 545.71 228.4 519.64 238.57 510.03 212.29 483.96 222.46 474.35 196.18 448.27 206.35 438.66 180.07 412.59 190.24 402.97 163.96 376.9 174.13 367.29 147.85 341.22 158.02 331.61 131.74 305.53 141.91 295.92 115.63 269.85 125.8 260.23 99.52 234.16 109.69 224.54 83.4 198.46 93.57 188.84 67.29 162.76 77.46"/>
      <polyline class="cls-3" points="623.15 243.01 613.54 216.73 587.47 226.9 577.85 200.62 551.78 210.79 542.17 184.51 516.1 194.68 506.49 168.4 480.41 178.57 470.8 152.29 444.73 162.46 435.11 136.18 409.04 146.35 399.43 120.07 373.36 130.24 363.75 103.96 337.67 114.13 328.06 87.85 301.99 98.02 292.37 71.73 266.3 81.91 256.68 55.62 230.6 65.79 220.98 39.5 194.9 49.67"/>
      <polyline class="cls-3" points="655.29 215.23 645.68 188.95 619.61 199.12 609.99 172.84 583.92 183.01 574.31 156.73 548.24 166.9 538.63 140.62 512.55 150.79 502.94 124.51 476.87 134.68 467.25 108.4 441.18 118.57 431.57 92.29 405.5 102.46 395.89 76.18 369.82 86.35 360.2 60.07 334.13 70.24 324.51 43.95 298.44 54.13 288.82 27.84 262.74 38.01 253.12 11.72 227.04 21.89"/>
    </g>
  </g>
</svg>