<?xml version="1.0" encoding="UTF-8"?>
<svg id="_レイヤー_2" data-name="レイヤー 2" xmlns="http://www.w3.org/2000/svg" viewBox="0 0 789.14 972.54">
  <defs>
    <style>
      .cls-1 {
        fill: #22215e;
      }

      .cls-2 {
        fill: #a88a00;
      }

      .cls-3 {
        fill: #e98a00;
      }
    </style>
  </defs>
  <g id="_レイヤー_3" data-name="レイヤー 3">
    <polygon class="cls-2" points="266.07 536.59 155.76 403.67 241.3 464.81 171.71 253.48 271.64 379.5 271.64 160.44 345.82 321.27 416.27 83.36 416.27 376.5 539.87 206.96 518.71 402.35 675.44 309.97 470.76 545.89 266.07 536.59"/>
    <path class="cls-1" d="M225.56,507.55h304.81v231.11c0,84.12-68.29,152.41-152.41,152.41h0c-84.12,0-152.41-68.29-152.41-152.41v-231.11h0Z"/>
    <path class="cls-1" d="M296.05,972.54h163.84c15.4,0,22.83-18.87,11.56-29.37l-81.92-76.34c-6.51-6.07-16.61-6.07-23.12,0l-81.92,76.34c-11.27,10.5-3.84,29.37,11.56,29.37Z"/>
    <polygon class="cls-3" points="430.49 0 473.64 105.52 543.45 195.65 430.49 180.25 317.54 195.65 387.35 105.52 430.49 0"/>
    <polygon class="cls-3" points="522.72 38.2 478.62 143.33 464.25 256.42 395.26 165.66 304.5 96.67 417.6 82.31 522.72 38.2"/>
    <polygon class="cls-3" points="789.14 347.13 683.62 390.28 593.49 460.09 608.88 347.13 593.49 234.17 683.62 303.99 789.14 347.13"/>
    <polygon class="cls-3" points="221.95 513.92 113.85 477.71 0 471.74 85.41 396.23 147.5 300.62 170.19 412.34 221.95 513.92"/>
    <polygon class="cls-3" points="354.5 280.81 246.4 244.6 132.56 238.63 217.97 163.12 280.05 67.51 302.74 179.23 354.5 280.81"/>
    <polygon class="cls-3" points="189.38 119.65 271.36 166.98 363.01 190.64 281.04 237.97 214.71 305.52 214.71 210.86 189.38 119.65"/>
    <polygon class="cls-3" points="737.8 263.73 701.17 351.02 689.25 444.93 631.96 369.57 556.6 312.28 650.51 300.36 737.8 263.73"/>
    <polygon class="cls-3" points="35.34 364.01 126.99 387.68 221.64 385.95 155.32 453.49 109.49 536.32 84.15 445.11 35.34 364.01"/>
  </g>
</svg>