<?xml version="1.0" encoding="UTF-8"?>
<svg id="_レイヤー_2" data-name="レイヤー 2" xmlns="http://www.w3.org/2000/svg" viewBox="0 0 304.81 577.09">
  <defs>
    <style>
      .cls-1 {
        fill: #22215e;
      }

      .cls-2 {
        fill: #e98a00;
      }
    </style>
  </defs>
  <g id="_レイヤー_3" data-name="レイヤー 3">
    <g>
      <path class="cls-2" d="M150.63,271.14h0c0-74.87-60.7-135.57-135.57-135.57h0c74.87,0,135.57-60.7,135.57-135.57h0c0,74.87,60.7,135.57,135.57,135.57h0c-74.87,0-135.57,60.7-135.57,135.57Z"/>
      <path class="cls-2" d="M54.77,231.43h0c52.94-52.94,52.94-138.78,0-191.73h0c52.94,52.94,138.78,52.94,191.73,0h0c-52.94,52.94-52.94,138.78,0,191.73h0c-52.94-52.94-138.78-52.94-191.73,0Z"/>
    </g>
    <path class="cls-1" d="M0,112.1h304.81v231.11c0,84.12-68.29,152.41-152.41,152.41h0C68.29,495.62,0,427.33,0,343.21V112.1H0Z"/>
    <path class="cls-1" d="M70.48,577.09h163.84c15.4,0,22.83-18.87,11.56-29.37l-81.92-76.34c-6.51-6.07-16.61-6.07-23.12,0l-81.92,76.34c-11.27,10.5-3.84,29.37,11.56,29.37Z"/>
  </g>
</svg>