<?xml version="1.0" encoding="UTF-8"?>
<svg id="_レイヤー_2" data-name="レイヤー 2" xmlns="http://www.w3.org/2000/svg" viewBox="0 0 334.4 597.66">
  <defs>
    <style>
      .cls-1 {
        fill: #22215e;
      }

      .cls-2 {
        fill: #e98a00;
      }
    </style>
  </defs>
  <g id="_レイヤー_3" data-name="レイヤー 3">
    <polygon class="cls-2" points="82.04 195.31 0 51 135.82 133.06 165.9 0 234.86 119.34 331.07 93.27 292.63 170.33 82.04 195.31"/>
    <path class="cls-1" d="M29.58,132.67h304.81v231.11c0,84.12-68.29,152.41-152.41,152.41h0c-84.12,0-152.41-68.29-152.41-152.41v-231.11h0Z"/>
    <path class="cls-1" d="M100.07,597.66h163.84c15.4,0,22.83-18.87,11.56-29.37l-81.92-76.34c-6.51-6.07-16.61-6.07-23.12,0l-81.92,76.34c-11.27,10.5-3.84,29.37,11.56,29.37Z"/>
  </g>
</svg>