<?xml version="1.0" encoding="UTF-8"?>
<svg id="_レイヤー_2" data-name="レイヤー 2" xmlns="http://www.w3.org/2000/svg" viewBox="0 0 666.94 886.23">
  <defs>
    <style>
      .cls-1 {
        fill: none;
        stroke: #e9ff00;
        stroke-miterlimit: 10;
        stroke-width: 3px;
      }

      .cls-2 {
        fill: #a300ff;
      }

      .cls-3 {
        fill: #007e67;
      }

      .cls-4 {
        fill: #c73813;
      }
    </style>
  </defs>
  <g id="_レイヤー_3" data-name="レイヤー 3">
    <polygon class="cls-4" points="616.92 886.23 50.02 886.23 0 596.94 666.94 596.94 616.92 886.23"/>
    <polygon class="cls-3" points="445.68 0 262.65 175.44 358.74 308.88 221.76 423.11 257.33 596.94 445.68 596.94 373.2 432.75 448.72 318.99 341.52 182.53 445.68 0"/>
    <circle class="cls-2" cx="292.72" cy="214.99" r="23.51"/>
    <circle class="cls-2" cx="236.33" cy="191.48" r="36.16"/>
    <circle class="cls-2" cx="247.72" cy="306.38" r="68.51"/>
    <circle class="cls-2" cx="455.02" cy="168.59" r="23.51"/>
    <circle class="cls-2" cx="478.54" cy="382.36" r="23.51"/>
    <circle class="cls-2" cx="333.55" cy="340.86" r="34.48"/>
    <circle class="cls-2" cx="221.76" cy="538.2" r="58.75"/>
    <circle class="cls-2" cx="251.66" cy="417.72" r="35.37"/>
    <circle class="cls-2" cx="424.1" cy="227.64" r="54.44"/>
    <circle class="cls-2" cx="426.2" cy="453.09" r="52.34"/>
    <circle class="cls-3" cx="292.98" cy="261.49" r=".26"/>
    <circle class="cls-2" cx="335.24" cy="73.04" r="36.84"/>
    <g>
      <line class="cls-1" x1="217.54" y1="274.78" x2="277.38" y2="334.62"/>
      <line class="cls-1" x1="277.65" y1="276.46" x2="217.8" y2="336.31"/>
    </g>
    <g>
      <line class="cls-1" x1="219.3" y1="174.67" x2="253.21" y2="208.58"/>
      <line class="cls-1" x1="253.36" y1="175.62" x2="219.44" y2="209.53"/>
    </g>
    <g>
      <line class="cls-1" x1="318.21" y1="56.23" x2="352.13" y2="90.14"/>
      <line class="cls-1" x1="352.27" y1="57.18" x2="318.36" y2="91.1"/>
    </g>
    <g>
      <line class="cls-1" x1="234.63" y1="400.91" x2="268.54" y2="434.83"/>
      <line class="cls-1" x1="268.69" y1="401.87" x2="234.78" y2="435.78"/>
    </g>
    <g>
      <line class="cls-1" x1="316.52" y1="324.05" x2="350.43" y2="357.97"/>
      <line class="cls-1" x1="350.58" y1="325.01" x2="316.66" y2="358.92"/>
    </g>
    <g>
      <line class="cls-1" x1="396.24" y1="199.74" x2="451.72" y2="255.22"/>
      <line class="cls-1" x1="451.96" y1="201.3" x2="396.48" y2="256.78"/>
    </g>
    <g>
      <line class="cls-1" x1="189.14" y1="505.42" x2="254.1" y2="570.39"/>
      <line class="cls-1" x1="254.39" y1="507.25" x2="189.42" y2="572.22"/>
    </g>
    <g>
      <line class="cls-1" x1="400.67" y1="426.95" x2="451.51" y2="477.79"/>
      <line class="cls-1" x1="451.73" y1="428.38" x2="400.89" y2="479.22"/>
    </g>
    <g>
      <line class="cls-1" x1="471.24" y1="374.89" x2="485.77" y2="389.42"/>
      <line class="cls-1" x1="485.83" y1="375.3" x2="471.31" y2="389.82"/>
    </g>
    <g>
      <line class="cls-1" x1="285.42" y1="207.52" x2="299.95" y2="222.05"/>
      <line class="cls-1" x1="300.01" y1="207.93" x2="285.48" y2="222.46"/>
    </g>
    <g>
      <line class="cls-1" x1="447.75" y1="161.32" x2="462.28" y2="175.85"/>
      <line class="cls-1" x1="462.35" y1="161.73" x2="447.82" y2="176.25"/>
    </g>
  </g>
</svg>