<?xml version="1.0" encoding="UTF-8"?>
<svg id="_レイヤー_2" data-name="レイヤー 2" xmlns="http://www.w3.org/2000/svg" viewBox="0 0 750.73 969.62">
  <defs>
    <style>
      .cls-1 {
        fill: #22215e;
      }

      .cls-2 {
        fill: #a88a00;
      }

      .cls-3 {
        fill: #e98a00;
      }
    </style>
  </defs>
  <g id="_レイヤー_3" data-name="レイヤー 3">
    <polygon class="cls-2" points="245.89 533.67 135.57 400.76 221.11 461.9 151.52 250.57 251.45 376.59 251.45 157.53 325.64 318.35 396.08 80.44 396.08 373.59 519.69 204.05 498.52 399.43 655.26 307.06 450.57 542.98 245.89 533.67"/>
    <path class="cls-1" d="M205.38,504.63h304.81v231.11c0,84.12-68.29,152.41-152.41,152.41h0c-84.12,0-152.41-68.29-152.41-152.41v-231.11h0Z"/>
    <path class="cls-1" d="M275.86,969.62h163.84c15.4,0,22.83-18.87,11.56-29.37l-81.92-76.34c-6.51-6.07-16.61-6.07-23.12,0l-81.92,76.34c-11.27,10.5-3.84,29.37,11.56,29.37Z"/>
    <g>
      <path class="cls-3" d="M395.42,271.14h0c0-74.87-60.7-135.57-135.57-135.57h0c74.87,0,135.57-60.7,135.57-135.57h0c0,74.87,60.7,135.57,135.57,135.57h0c-74.87,0-135.57,60.7-135.57,135.57Z"/>
      <path class="cls-3" d="M299.55,231.43h0c52.94-52.94,52.94-138.78,0-191.73h0c52.94,52.94,138.78,52.94,191.73,0h0c-52.94,52.94-52.94,138.78,0,191.73h0c-52.94-52.94-138.78-52.94-191.73,0Z"/>
    </g>
    <g>
      <path class="cls-3" d="M615.16,447.28h0c0-74.87-60.7-135.57-135.57-135.57h0c74.87,0,135.57-60.7,135.57-135.57h0c0,74.87,60.7,135.57,135.57,135.57h0c-74.87,0-135.57,60.7-135.57,135.57Z"/>
      <path class="cls-3" d="M519.3,407.57h0c52.94-52.94,52.94-138.78,0-191.73h0c52.94,52.94,138.78,52.94,191.73,0h0c-52.94,52.94-52.94,138.78,0,191.73h0c-52.94-52.94-138.78-52.94-191.73,0Z"/>
    </g>
    <g>
      <path class="cls-3" d="M135.57,582.85h0c0-74.87-60.7-135.57-135.57-135.57h0c74.87,0,135.57-60.7,135.57-135.57h0c0,74.87,60.7,135.57,135.57,135.57h0c-74.87,0-135.57,60.7-135.57,135.57Z"/>
      <path class="cls-3" d="M39.71,543.14h0c52.94-52.94,52.94-138.78,0-191.73h0c52.94,52.94,138.78,52.94,191.73,0h0c-52.94,52.94-52.94,138.78,0,191.73h0c-52.94-52.94-138.78-52.94-191.73,0Z"/>
    </g>
    <g>
      <path class="cls-3" d="M145.34,406.71h0c0-74.87-60.7-135.57-135.57-135.57h0c74.87,0,135.57-60.7,135.57-135.57h0c0,74.87,60.7,135.57,135.57,135.57h0c-74.87,0-135.57,60.7-135.57,135.57Z"/>
      <path class="cls-3" d="M49.48,367h0c52.94-52.94,52.94-138.78,0-191.73h0c52.94,52.94,138.78,52.94,191.73,0h0c-52.94,52.94-52.94,138.78,0,191.73h0c-52.94-52.94-138.78-52.94-191.73,0Z"/>
    </g>
  </g>
</svg>