<?xml version="1.0" encoding="UTF-8"?>
<svg id="_レイヤー_2" data-name="レイヤー 2" xmlns="http://www.w3.org/2000/svg" viewBox="0 0 378.78 771.18">
  <defs>
    <style>
      .cls-1 {
        fill: #22215e;
      }

      .cls-2 {
        fill: #a88a00;
      }
    </style>
  </defs>
  <g id="_レイヤー_3" data-name="レイヤー 3">
    <polygon class="cls-2" points="80.41 330.34 0 233.47 62.35 278.03 11.62 124 84.46 215.85 84.46 56.19 138.53 173.4 189.87 0 189.87 213.66 279.97 90.09 264.54 232.5 378.78 165.17 229.59 337.12 80.41 330.34"/>
    <path class="cls-1" d="M16.14,306.19h304.81v231.11c0,84.12-68.29,152.41-152.41,152.41h0c-84.12,0-152.41-68.29-152.41-152.41v-231.11h0Z"/>
    <path class="cls-1" d="M86.63,771.18h163.84c15.4,0,22.83-18.87,11.56-29.37l-81.92-76.34c-6.51-6.07-16.61-6.07-23.12,0l-81.92,76.34c-11.27,10.5-3.84,29.37,11.56,29.37Z"/>
  </g>
</svg>